<svg xmlns="http://www.w3.org/2000/svg" viewBox="0 0 32 32">
  <path stroke-linejoin="miter" stroke-linecap="butt" stroke-miterlimit="4"
    stroke-width="1"
    d="M13.525 8.837c1.049-2.615 1.573-3.922 2.475-3.922s1.426 1.307 2.475 3.922l0.049 0.122c0.593 1.477 0.889 2.216 1.493 2.665s1.396 0.52 2.982 0.662l0.287 0.026c2.594 0.232 3.892 0.349 4.169 1.174s-0.686 1.702-2.613 3.455l-0.643 0.585c-0.975 0.887-1.463 1.331-1.69 1.913-0.042 0.109-0.078 0.22-0.105 0.333-0.149 0.606-0.007 1.25 0.279 2.537l0.089 0.401c0.525 2.366 0.787 3.549 0.329 4.059-0.171 0.191-0.394 0.328-0.641 0.395-0.662 0.181-1.601-0.585-3.479-2.116-1.234-1.005-1.85-1.508-2.559-1.621-0.279-0.045-0.562-0.045-0.841 0-0.708 0.113-1.325 0.616-2.558 1.621-1.879 1.531-2.818 2.296-3.479 2.116-0.247-0.067-0.47-0.205-0.641-0.395-0.458-0.51-0.196-1.693 0.329-4.059l0.089-0.401c0.286-1.287 0.428-1.931 0.279-2.537-0.028-0.113-0.063-0.224-0.106-0.333-0.227-0.581-0.715-1.025-1.69-1.913l-0.643-0.585c-1.927-1.753-2.89-2.629-2.613-3.455s1.575-0.941 4.169-1.174l0.287-0.026c1.585-0.142 2.378-0.213 2.982-0.662s0.9-1.188 1.493-2.665l0.049-0.122z"></path>
</svg>